<svg xmlns="http://www.w3.org/2000/svg" xmlns:svg="http://www.w3.org/2000/svg" id="svg5" width="130mm" height="130mm" version="1.1" viewBox="0 0 130 130"><defs id="defs2"><rect id="rect12469" width="213.102" height="276.897" x="286.399" y="431.634"/><rect id="rect3773" width="176.454" height="267.396" x="308.116" y="465.567"/></defs><g id="layer1" transform="translate(-55.42222,-82.637121)"><path id="path1009" style="fill:#e5f2f8;fill-opacity:1;stroke-width:8.47412" d="M 62 0 L 62 244.93359 L 62 489.86719 L 249.05273 489.86719 L 436.10547 489.86719 L 436.10547 302.15625 L 436.10547 114.44531 L 378.94141 57.222656 L 321.7793 0 L 191.88867 0 L 62 0 z M 228.81055 227.10352 L 246.87695 227.10352 L 246.87695 286.67383 C 251.17383 280.09831 256.2194 275.18294 262.01367 271.92773 C 267.87305 268.67253 274.61133 267.04492 282.22852 267.04492 C 294.79362 267.04492 304.29883 270.95117 310.74414 278.76367 C 317.18945 286.51107 320.41211 297.93685 320.41211 313.04102 L 320.41211 379.05664 L 302.44336 379.05664 L 302.44336 313.62695 C 302.44336 303.27539 300.42513 295.52799 296.38867 290.38477 C 292.35221 285.24154 286.29753 282.66992 278.22461 282.66992 C 268.52409 282.66992 260.87435 285.76237 255.27539 291.94727 C 249.67643 298.13216 246.87695 306.56315 246.87695 317.24023 L 246.87695 379.05664 L 228.81055 379.05664 L 228.81055 227.10352 z M 168.45898 354.25195 L 189.06445 354.25195 L 189.06445 379.05664 L 168.45898 379.05664 L 168.45898 354.25195 z" transform="matrix(0.26458333,0,0,0.26458333,55.42222,82.637121)"/></g></svg>